<svg width="32" height="32" viewBox="0 0 32 32" fill="none" xmlns="http://www.w3.org/2000/svg">
  <style>
    path { fill: #000000; }
    @media (prefers-color-scheme: dark) {
      path { fill: #FFFFFF; }
    }
  </style>
  <path fill-rule="evenodd" clip-rule="evenodd" d="M16 2C8.268 2 2 8.268 2 16C2 23.732 8.268 30 16 30C23.732 30 30 23.732 30 16C30 8.268 23.732 2 16 2ZM13.5 11.5L10 15L13.5 18.5L12 20L7 15L12 10L13.5 11.5ZM18.5 11.5L22 15L18.5 18.5L20 20L25 15L20 10L18.5 11.5ZM14 20L18 10H19L15 20H14Z"/>
</svg> 