<svg xmlns="http://www.w3.org/2000/svg" width="179" height="32" fill="none"><g clip-path="url(#a)"><path fill="#2E51ED" d="M173 0H6a6 6 0 0 0-6 6v20a6 6 0 0 0 6 6h167a6 6 0 0 0 6-6V6a6 6 0 0 0-6-6"/><path fill="#fff" d="M15.027 23.227h-.246l-1.225-1.178v-.236l1.873-1.802h1.298l.173.167v1.248zM13.556 9.9v-.236l1.225-1.179h.246l1.873 1.802v1.248l-.173.166h-1.298zm10.787 9.529h-1.782l-.15-.143v-4.013c0-.714-.291-1.268-1.187-1.287-.46-.011-.988 0-1.551.021l-.085.084v5.193l-.149.143h-1.782l-.15-.143v-6.855l.15-.144h4.012c1.56 0 2.823 1.215 2.823 2.715v4.286zM15.28 16.86H8.15L8 16.716v-1.718l.149-.143h7.131l.15.143v1.718zm18.573 0h-7.131l-.15-.144v-1.718l.15-.143h7.131l.149.143v1.718zm-13.88-6.717V5l.149-.143h1.787l.148.143v5.143l-.148.144h-1.787zm0 16.571v-5.143l.149-.143h1.787l.148.143v5.143l-.148.143h-1.787zM155.15 10.64c-.43.42-.64 1-.64 1.75v1.04h-1.23v1.67h1.23v6.09h1.96V15.1h1.64v-1.67h-1.64v-1.05c0-.53.28-.8.83-.8h1.04V10h-1.4c-.76 0-1.35.21-1.78.64zm-4.22-.51c-.36 0-.66.12-.88.35-.21.22-.32.5-.32.84s.11.63.32.87c.22.23.52.35.88.35s.64-.12.85-.35c.22-.23.34-.52.34-.87s-.11-.62-.34-.84c-.22-.23-.5-.35-.85-.35m-77.7.01h1.96v11.05h-1.96z"/><path fill="#fff" fill-rule="evenodd" d="M47.32 10.63c1.17 0 2.17.21 3.01.64.84.42 1.48 1.03 1.92 1.82.45.79.67 1.74.67 2.83s-.22 2.04-.67 2.83c-.44.79-1.08 1.39-1.92 1.81s-1.84.63-3.01.63H44V10.63zm-.09 8.59q1.62 0 2.55-.87v.01c.63-.59.94-1.39.94-2.44s-.31-1.87-.94-2.45q-.93-.87-2.55-.87h-1.12v6.62zm10.93-5.93c.8 0 1.49.16 2.09.5l-.01-.01c.61.33 1.07.79 1.4 1.39s.49 1.3.49 2.09v.66h-5.85c.03.26.08.52.19.74.16.3.38.53.67.7s.64.25 1.05.25.76-.07 1.04-.2.49-.32.63-.55h2.1c-.16.47-.42.9-.77 1.27-.34.38-.78.66-1.3.87-.51.21-1.09.31-1.72.31-.79 0-1.49-.16-2.1-.49-.6-.33-1.06-.8-1.4-1.41-.33-.6-.49-1.31-.49-2.11s.16-1.5.49-2.1.79-1.07 1.39-1.41c.61-.33 1.3-.5 2.1-.5m0 1.7c-.36 0-.69.09-.98.27-.29.16-.52.4-.69.71-.08.17-.14.34-.18.52h3.74a1.71 1.71 0 0 0-.9-1.26c-.29-.16-.63-.24-.99-.24m12-1.25c-.52-.32-1.12-.48-1.81-.48s-1.29.16-1.78.48c-.29.19-.52.45-.71.73v-1.04H63.9v10.42h1.96v-3.69c.2.29.43.54.71.74.49.33 1.08.49 1.78.49s1.28-.16 1.81-.48c.52-.33.93-.79 1.22-1.4.29-.62.43-1.34.43-2.18s-.14-1.58-.43-2.18c-.29-.62-.7-1.08-1.22-1.4zm-.66 4.86c-.17.35-.4.62-.7.81-.29.19-.62.28-.99.28-.59 0-1.06-.21-1.41-.62-.35-.42-.53-.99-.53-1.72s.18-1.28.53-1.69.83-.62 1.41-.62c.37 0 .7.1.99.29.3.19.53.46.7.81s.25.75.25 1.2-.08.89-.25 1.25zm13.35-4.81c-.62-.35-1.34-.53-2.17-.53s-1.55.18-2.17.53c-.61.35-1.07.83-1.4 1.44-.33.62-.49 1.31-.49 2.09s.16 1.47.49 2.09c.33.61.79 1.09 1.4 1.44.62.35 1.34.53 2.17.53s1.55-.18 2.17-.53 1.08-.84 1.4-1.46c.33-.62.49-1.31.49-2.07s-.16-1.47-.49-2.09c-.32-.62-.78-1.1-1.4-1.44m-.42 4.7c-.16.34-.39.6-.7.78-.3.19-.65.28-1.05.28s-.77-.09-1.06-.28c-.3-.19-.53-.45-.7-.78-.16-.34-.24-.73-.24-1.18s.08-.85.24-1.19c.17-.34.4-.59.7-.77.3-.19.65-.28 1.06-.28s.75.09 1.05.28c.31.18.54.44.7.78.17.34.25.73.25 1.18s-.08.84-.25 1.18" clip-rule="evenodd"/><path fill="#fff" d="m87.11 13.43 2.04 5.07 2.11-5.07h1.89l-4.31 10.32h-1.89l1.19-2.85-3.01-7.47zm15.6-2.45h-1.96v2.45h-1.49v1.67h1.49v6.09h1.96V15.1h1.68v-1.67h-1.68z"/><path fill="#fff" fill-rule="evenodd" d="M109.18 13.26c.83 0 1.55.18 2.17.53.62.34 1.08.82 1.4 1.44.33.62.49 1.33.49 2.09s-.16 1.45-.49 2.07c-.32.62-.78 1.11-1.4 1.46s-1.34.53-2.17.53-1.55-.18-2.17-.53c-.61-.35-1.07-.83-1.4-1.44-.33-.62-.49-1.31-.49-2.09s.16-1.47.49-2.09c.33-.61.79-1.09 1.4-1.44.62-.35 1.34-.53 2.17-.53m1.05 6.01c.31-.18.54-.44.7-.78.17-.34.25-.73.25-1.18s-.08-.84-.25-1.18c-.16-.34-.39-.6-.7-.78-.3-.19-.64-.28-1.05-.28s-.76.09-1.06.28c-.3.18-.53.43-.7.77-.16.34-.24.74-.24 1.19s.08.84.24 1.18c.17.33.4.59.7.78.29.19.66.28 1.06.28s.75-.09 1.05-.28" clip-rule="evenodd"/><path fill="#fff" d="m126.91 16.02-4.69-5.39h-1.81v10.56h2.11v-6.93l4.39 5.05v1.88h2.11V10.63h-2.11z"/><path fill="#fff" fill-rule="evenodd" d="M134.5 13.29c.8 0 1.49.16 2.09.5l-.01-.01c.61.33 1.07.79 1.4 1.39s.49 1.3.49 2.09v.66h-5.85c.03.26.08.52.19.74.16.3.38.53.67.7s.64.25 1.05.25.76-.07 1.04-.2.49-.32.63-.55h2.1c-.16.47-.42.9-.77 1.27-.34.38-.78.66-1.3.87-.51.21-1.09.31-1.72.31-.79 0-1.49-.16-2.1-.49-.6-.33-1.06-.8-1.4-1.41-.33-.6-.49-1.31-.49-2.11s.16-1.5.49-2.1.79-1.07 1.39-1.41c.61-.33 1.3-.5 2.1-.5m0 1.7c-.36 0-.69.09-.98.27-.29.16-.52.4-.69.71-.08.17-.14.34-.18.52h3.74a1.71 1.71 0 0 0-.9-1.26c-.29-.16-.63-.24-.99-.24" clip-rule="evenodd"/><path fill="#fff" d="M142.58 10.98h-1.96v2.45h-1.48v1.67h1.48v6.09h1.96V15.1h1.68v-1.67h-1.68zm3.34-.84h1.96v11.05h-1.96zm4.03 11.04v-7.92c.26.19.58.29.98.29s.73-.09.98-.29v7.92zm13.19-2.68 2.12-5.07h1.89l-4.31 10.32h-1.89l1.19-2.85-3.01-7.47h1.97z"/></g><defs><clipPath id="a"><path fill="#fff" d="M0 0h179v32H0z"/></clipPath></defs></svg>