<svg xmlns="http://www.w3.org/2000/svg" width="171" height="32" fill="none"><path fill="#1A1A1A" stroke="#363636" d="M5.732.5h159.536c2.868 0 5.232 2.44 5.232 5.5v20c0 3.06-2.364 5.5-5.232 5.5H5.732C2.864 31.5.5 29.06.5 26V6C.5 2.94 2.864.5 5.732.5Z"/><path fill="#fff" d="m21.29 6 10.093 18H11.196zM44.216 21V10.312h2.912q1.28 0 2.336.272 1.072.256 1.856.864t1.216 1.648q.432 1.024.432 2.544 0 1.536-.432 2.576-.432 1.024-1.216 1.648a5 5 0 0 1-1.856.88 10 10 0 0 1-2.336.256zm1.504-1.264h1.376q.832 0 1.6-.128a3.7 3.7 0 0 0 1.392-.544q.624-.416.976-1.232.368-.832.368-2.192t-.368-2.16q-.352-.817-.976-1.216a3.4 3.4 0 0 0-1.392-.544 8.7 8.7 0 0 0-1.6-.144H45.72zm12.542 1.456q-1.248 0-2.112-.544a3.73 3.73 0 0 1-1.328-1.488q-.448-.944-.448-2.112 0-1.264.512-2.176.512-.928 1.376-1.424a3.84 3.84 0 0 1 1.968-.512q.944 0 1.664.384.72.367 1.184 1.008.48.624.688 1.424a4.7 4.7 0 0 1 .16 1.648h-6.112q.032.992.432 1.568.415.576.976.816.56.224 1.04.224.672 0 1.12-.208.463-.224.736-.576l1.296.384q-.432.688-1.232 1.136-.801.448-1.92.448m-2.432-4.864h4.672q0-.56-.288-1.072a2.17 2.17 0 0 0-.784-.832q-.497-.336-1.2-.336-.592 0-1.12.224-.528.225-.88.72-.337.496-.4 1.296m7.68 7.248V13.064h.977l.368 1.248a2.7 2.7 0 0 1 1.008-.992q.64-.384 1.568-.384.912 0 1.68.496.783.48 1.248 1.408.48.913.48 2.224 0 1.296-.48 2.224-.465.928-1.248 1.424-.768.48-1.68.48-.929 0-1.568-.368a2.8 2.8 0 0 1-1.008-1.024v3.776zm3.569-3.536q1.023 0 1.632-.784.624-.784.624-2.192 0-1.424-.624-2.192-.609-.784-1.632-.784-1.024 0-1.648.784-.609.768-.608 2.192 0 1.409.608 2.192.624.784 1.648.784m7.366.96q-.751 0-1.168-.144a.96.96 0 0 1-.56-.592q-.144-.432-.144-1.248v-8.688h1.344v8.464q0 .608.128.816t.688.208h.304V21zm5.252.192q-.688 0-1.36-.24a3.8 3.8 0 0 1-1.232-.736 3.8 3.8 0 0 1-.88-1.296q-.336-.784-.336-1.856t.336-1.856q.337-.785.88-1.28a3.6 3.6 0 0 1 1.232-.752q.672-.24 1.36-.24t1.36.24q.689.24 1.232.752.56.495.88 1.28.336.784.336 1.856t-.336 1.856a3.5 3.5 0 0 1-.88 1.296q-.543.495-1.232.736-.672.24-1.36.24m0-1.184q.576 0 1.12-.304.545-.32.896-.96.352-.656.352-1.68t-.352-1.664q-.351-.655-.896-.96a2.2 2.2 0 0 0-1.12-.32 2.24 2.24 0 0 0-1.12.32q-.543.304-.896.96-.351.64-.352 1.664 0 1.024.352 1.68.353.64.896.96.56.304 1.12.304m5.004 3.568v-1.184h.544q.576 0 .88-.096a.77.77 0 0 0 .48-.384q.192-.287.368-.896L84.11 13.08h1.488l1.952 6.112 1.952-6.112h1.472l-2.816 8.272q-.288.848-.592 1.328-.288.495-.784.688-.495.208-1.392.208zM98.99 21q-.751 0-1.168-.144a.96.96 0 0 1-.56-.592q-.144-.432-.144-1.248v-4.88h-1.344v-1.072h1.344v-2h1.344v2h1.536v1.072h-1.536v4.656q0 .608.112.816.128.208.704.208h.72V21zm6.068.192q-.688 0-1.36-.24a3.75 3.75 0 0 1-1.232-.736 3.8 3.8 0 0 1-.88-1.296q-.336-.784-.336-1.856t.336-1.856q.336-.785.88-1.28a3.6 3.6 0 0 1 1.232-.752q.672-.24 1.36-.24t1.36.24q.687.24 1.232.752.56.495.88 1.28.336.784.336 1.856t-.336 1.856a3.55 3.55 0 0 1-.88 1.296q-.545.495-1.232.736a4 4 0 0 1-1.36.24m0-1.184q.576 0 1.12-.304.543-.32.896-.96.351-.656.352-1.68 0-1.024-.352-1.664-.353-.655-.896-.96a2.2 2.2 0 0 0-1.12-.32q-.56 0-1.12.32-.545.304-.896.96-.352.64-.352 1.664t.352 1.68q.351.64.896.96.56.304 1.12.304m12.72.992-3.664-10.688h1.648l2.896 8.928 2.912-8.928h1.648L119.537 21zm9.344.192q-1.248 0-2.112-.544a3.7 3.7 0 0 1-1.328-1.488q-.448-.944-.448-2.112 0-1.264.512-2.176a3.6 3.6 0 0 1 1.376-1.424 3.84 3.84 0 0 1 1.968-.512q.944 0 1.664.384.72.367 1.184 1.008.48.624.688 1.424.224.8.16 1.648h-6.112q.031.992.432 1.568.416.576.976.816.56.224 1.04.224.672 0 1.12-.208.464-.224.736-.576l1.296.384q-.432.688-1.232 1.136t-1.92.448m-2.432-4.864h4.672q0-.56-.288-1.072a2.17 2.17 0 0 0-.784-.832q-.496-.336-1.2-.336-.592 0-1.12.224-.528.225-.88.72-.336.496-.4 1.296M132.37 21v-7.936h.976l.432 1.472a3.2 3.2 0 0 1 1.12-1.152q.72-.448 1.712-.448v1.392h-.24q-.112 0-.224.016-1.36.113-1.904.944-.528.832-.528 2.304V21zm8.622.192q-1.137 0-1.968-.528a3.6 3.6 0 0 1-1.281-1.472q-.447-.928-.447-2.128 0-1.184.464-2.112.48-.944 1.344-1.472.864-.544 2.032-.544 1.071 0 1.84.528.768.528 1.152 1.264l-1.232.448a1.93 1.93 0 0 0-.752-.768 2.16 2.16 0 0 0-1.104-.288q-.592 0-1.12.32-.528.304-.848.96-.32.64-.32 1.648 0 .992.32 1.664.335.656.848.976.528.32 1.12.32.656 0 1.136-.288.495-.304.752-.752l1.232.448a3.7 3.7 0 0 1-1.28 1.28q-.832.495-1.888.496m8.192 0q-1.248 0-2.112-.544a3.73 3.73 0 0 1-1.329-1.488q-.447-.944-.447-2.112 0-1.264.512-2.176a3.6 3.6 0 0 1 1.376-1.424 3.84 3.84 0 0 1 1.968-.512q.944 0 1.664.384.72.367 1.184 1.008.48.624.688 1.424.223.8.16 1.648h-6.112q.031.992.432 1.568.415.576.976.816.56.224 1.04.224.672 0 1.12-.208.463-.224.736-.576l1.296.384q-.432.688-1.232 1.136-.801.448-1.92.448m-2.432-4.864h4.672q0-.56-.288-1.072a2.2 2.2 0 0 0-.784-.832q-.496-.336-1.2-.336-.592 0-1.12.224-.528.225-.88.72-.337.496-.4 1.296M156.305 21q-.753 0-1.168-.144a.96.96 0 0 1-.56-.592q-.144-.432-.144-1.248v-8.688h1.344v8.464q0 .608.128.816.127.208.688.208h.304V21z"/></svg>