<svg width="27" height="33" viewBox="0 0 27 33" fill="none" xmlns="http://www.w3.org/2000/svg">
<path d="M21.1746 1.16526C22.6782 1.92625 23.9311 3.19457 24.9334 4.71655C25.9358 6.36536 26.5623 8.141 26.6876 10.424L22.5529 11.6923C22.3023 9.40932 21.5505 7.63368 20.1723 6.36536C18.7941 5.09704 17.1652 4.46289 15.0352 4.46289C12.9053 4.46289 11.1511 4.97021 9.52232 6.1117C8.01879 7.12635 6.76586 8.64833 6.0141 10.6776C5.26234 12.7069 4.76116 14.9899 4.76116 17.6534V33H0V1.2921H4.1347L4.51057 7.12635C5.63821 4.97021 7.01644 3.19457 8.89585 1.92625C10.7753 0.657939 12.9053 0.0237809 15.4111 0.0237809C17.7917 -0.103051 19.5458 0.277444 21.1746 1.16526Z" fill="black"/>
</svg>
