<svg width="138" height="74" viewBox="0 0 138 74" fill="none" xmlns="http://www.w3.org/2000/svg">
<path d="M69 74C50.8486 74 33.6919 70.3503 20.7622 63.5544C7.33514 56.6327 0 47.1939 0 37C0 26.8061 7.33514 17.3673 20.7622 10.4456C33.6919 3.64966 50.8486 0 69 0C87.1514 0 104.308 3.64966 117.238 10.4456C130.665 17.3673 138 26.932 138 37.1259C138 47.3197 130.665 56.6327 117.238 63.6803C104.308 70.3503 87.1514 74 69 74ZM69 4.90816C51.5946 4.90816 35.3081 8.43197 23 14.7245C11.3135 20.8912 4.84865 28.8197 4.84865 37C4.84865 45.1803 11.3135 53.1088 23 59.2755C35.1838 65.568 51.5946 69.0918 69 69.0918C86.4054 69.0918 102.692 65.568 115 59.2755C126.686 53.2347 133.151 45.3061 133.151 37C133.151 28.6939 126.686 20.8912 115 14.7245C102.692 8.43197 86.4054 4.90816 69 4.90816Z" fill="black"/>
</svg>
