<svg width="44" height="34" viewBox="0 0 44 34" fill="none" xmlns="http://www.w3.org/2000/svg">
<path d="M41.176 28.4592C40.8028 28.9629 40.3052 29.4667 39.6833 29.8444C39.4345 29.9704 39.1857 30.0963 38.9369 30.2222C37.6929 30.7259 36.5733 30.4741 35.9513 29.7185C35.4537 29.2148 35.2049 28.5852 35.2049 27.7037V22.6667H30.6021L26.9946 25.8148C25.875 26.8222 24.5066 27.5778 22.8894 28.2074C20.5258 29.2148 17.789 29.7185 14.8035 29.7185C11.6935 29.7185 9.20552 29.2148 7.33954 28.3333C5.59795 27.3259 4.60276 26.0667 4.60276 24.4296C4.60276 22.7926 5.59795 21.4074 7.58834 20.4C9.57872 19.3926 12.5643 18.637 16.7939 18.1333L30.4777 17C33.2145 16.7481 35.2049 14.4815 35.2049 11.7111V11.5852C35.2049 9.19259 34.4585 7.05185 33.0901 5.41481C31.7217 3.65185 29.7313 2.39259 27.2434 1.38518C24.7554 0.503704 22.0186 0 19.033 0C16.1719 0 13.5595 0.377778 10.9471 1.25926C8.45912 2.14074 6.21995 3.27407 4.35396 4.53333C2.48798 5.91852 1.24399 7.42963 0.621995 9.06666L4.10517 11.4593C4.72716 10.2 5.72235 8.94073 7.09074 7.93333C8.58353 6.8 10.3251 5.91852 12.4399 5.28889C14.5547 4.65926 16.6695 4.28148 18.9086 4.28148C21.1478 4.28148 23.1382 4.53333 24.8798 5.03703C26.6214 5.54074 28.1142 6.29629 29.1093 7.3037C30.1045 8.31111 30.6021 9.44444 30.6021 10.7037C30.6021 11.4593 30.3533 11.963 29.8557 12.3407C29.3581 12.7185 28.7361 12.9704 27.9898 12.9704L16.4207 14.1037C10.9471 14.7333 6.84194 15.8667 4.10517 17.6296C1.36839 19.3926 0 21.7852 0 24.5555C0 26.4444 0.621996 28.0815 1.74159 29.4667C2.86118 30.8518 4.47836 31.9852 6.59314 32.7407C8.70792 33.4963 11.3203 33.8741 14.1815 33.8741C16.5451 33.8741 18.9086 33.6222 21.0234 32.9926C23.1382 32.3629 25.0042 31.4815 26.6214 30.4741C28.2386 29.3407 29.3581 28.3333 30.2289 26.8222L30.7265 26.6963L30.6021 27.9555C30.6021 29.2148 30.8509 30.2222 31.3485 31.1037C31.8461 31.9852 32.5925 32.6148 33.5877 33.2444C34.4585 33.7481 35.5781 34 36.6977 34C38.0661 34 39.4345 33.7481 40.6784 33.1185C42.0468 32.4889 42.9176 31.6074 43.5396 30.6L41.176 28.4592Z" fill="black"/>
</svg>
